<?xml version="1.0" encoding="UTF-8" standalone="no"?>
<!DOCTYPE svg PUBLIC "-//W3C//DTD SVG 1.1//EN"
 "http://www.w3.org/Graphics/SVG/1.1/DTD/svg11.dtd">
<!-- Generated by graphviz version 2.44.0 (0)
 -->
<!-- Title: finite_state_machine Pages: 1 -->
<svg width="576pt" height="232pt"
 viewBox="0.00 0.00 576.00 232.10" xmlns="http://www.w3.org/2000/svg" xmlns:xlink="http://www.w3.org/1999/xlink">
<g id="graph0" class="graph" transform="scale(0.59 0.59) rotate(0) translate(4 388)">
<title>finite_state_machine</title>
<polygon fill="white" stroke="transparent" points="-4,4 -4,-388 968.82,-388 968.82,4 -4,4"/>
<!-- 0 -->
<g id="node1" class="node">
<title>0</title>
<ellipse fill="none" stroke="black" cx="455.82" cy="-366" rx="18" ry="18"/>
<text text-anchor="middle" x="455.82" y="-362.3" font-family="Times,serif" font-size="14.00">0</text>
</g>
<!-- 0&#45;&gt;0 -->
<g id="edge1" class="edge">
<title>0&#45;&gt;0</title>
<path fill="none" stroke="black" d="M472.48,-373.38C482.44,-375.02 491.82,-372.56 491.82,-366 491.82,-361.8 487.97,-359.28 482.59,-358.44"/>
<polygon fill="black" stroke="black" points="482.42,-354.94 472.48,-358.62 482.54,-361.94 482.42,-354.94"/>
<text text-anchor="middle" x="579.32" y="-362.3" font-family="Times,serif" font-size="14.00">!trig_pc_is_valid_pc &amp;&amp; !trigA</text>
</g>
<!-- 1 -->
<g id="node2" class="node">
<title>1</title>
<ellipse fill="none" stroke="black" cx="134.82" cy="-279" rx="18" ry="18"/>
<text text-anchor="middle" x="134.82" y="-275.3" font-family="Times,serif" font-size="14.00">1</text>
</g>
<!-- 0&#45;&gt;1 -->
<g id="edge2" class="edge">
<title>0&#45;&gt;1</title>
<path fill="none" stroke="black" d="M437.83,-363.92C403.99,-361.4 329.04,-353.42 270.82,-330 259.49,-325.45 258.86,-320.19 247.82,-315 219.77,-301.82 185.53,-292.02 162.14,-286.19"/>
<polygon fill="black" stroke="black" points="162.76,-282.74 152.22,-283.8 161.11,-289.55 162.76,-282.74"/>
<text text-anchor="middle" x="356.32" y="-318.8" font-family="Times,serif" font-size="14.00">!trig_pc_is_valid_pc &amp;&amp; trigA</text>
</g>
<!-- 4 -->
<g id="node3" class="node">
<title>4</title>
<ellipse fill="none" stroke="black" cx="389.82" cy="-18" rx="18" ry="18"/>
<text text-anchor="middle" x="389.82" y="-14.3" font-family="Times,serif" font-size="14.00">4</text>
</g>
<!-- 0&#45;&gt;4 -->
<g id="edge3" class="edge">
<title>0&#45;&gt;4</title>
<path fill="none" stroke="black" d="M473.82,-363.24C533.91,-356.87 723.82,-332.59 723.82,-280 723.82,-280 723.82,-280 723.82,-104 723.82,-41.14 498.81,-24.21 418.16,-20.15"/>
<polygon fill="black" stroke="black" points="417.93,-16.64 407.77,-19.67 417.6,-23.63 417.93,-16.64"/>
<text text-anchor="middle" x="777.82" y="-188.3" font-family="Times,serif" font-size="14.00">trig_pc_is_valid_pc</text>
</g>
<!-- 1&#45;&gt;0 -->
<g id="edge4" class="edge">
<title>1&#45;&gt;0</title>
<path fill="none" stroke="black" d="M116.72,-280.95C74.18,-283.79 -26.15,-294.36 6.82,-330 35.39,-360.88 333.29,-364.58 427.45,-364.97"/>
<polygon fill="black" stroke="black" points="427.64,-368.47 437.65,-365 427.66,-361.47 427.64,-368.47"/>
<text text-anchor="middle" x="125.32" y="-318.8" font-family="Times,serif" font-size="14.00">!trig_pc_is_valid_pc &amp;&amp; !trigA &amp;&amp; !trigB</text>
</g>
<!-- 1&#45;&gt;1 -->
<g id="edge5" class="edge">
<title>1&#45;&gt;1</title>
<path fill="none" stroke="black" d="M151.48,-286.38C161.44,-288.02 170.82,-285.56 170.82,-279 170.82,-274.8 166.97,-272.28 161.59,-271.44"/>
<polygon fill="black" stroke="black" points="161.42,-267.94 151.48,-271.62 161.54,-274.94 161.42,-267.94"/>
<text text-anchor="middle" x="286.82" y="-275.3" font-family="Times,serif" font-size="14.00">!trig_pc_is_valid_pc &amp;&amp; trigA &amp;&amp; !trigB</text>
</g>
<!-- 1&#45;&gt;4 -->
<g id="edge7" class="edge">
<title>1&#45;&gt;4</title>
<path fill="none" stroke="black" d="M126.52,-262.82C113.21,-236.2 90.79,-180.22 113.82,-141 166.27,-51.69 302.31,-27.56 361.55,-21.2"/>
<polygon fill="black" stroke="black" points="362.07,-24.67 371.68,-20.21 361.39,-17.7 362.07,-24.67"/>
<text text-anchor="middle" x="167.82" y="-144.8" font-family="Times,serif" font-size="14.00">trig_pc_is_valid_pc</text>
</g>
<!-- 2 -->
<g id="node4" class="node">
<title>2</title>
<ellipse fill="none" stroke="black" cx="221.82" cy="-192" rx="18" ry="18"/>
<text text-anchor="middle" x="221.82" y="-188.3" font-family="Times,serif" font-size="14.00">2</text>
</g>
<!-- 1&#45;&gt;2 -->
<g id="edge6" class="edge">
<title>1&#45;&gt;2</title>
<path fill="none" stroke="black" d="M147.28,-265.82C161.62,-251.81 185.36,-228.62 202.19,-212.18"/>
<polygon fill="black" stroke="black" points="204.67,-214.65 209.38,-205.16 199.78,-209.64 204.67,-214.65"/>
<text text-anchor="middle" x="298.82" y="-231.8" font-family="Times,serif" font-size="14.00">!trig_pc_is_valid_pc &amp;&amp; !trigA &amp;&amp; trigB</text>
</g>
<!-- 4&#45;&gt;0 -->
<g id="edge14" class="edge">
<title>4&#45;&gt;0</title>
<path fill="none" stroke="black" d="M407.68,-20.25C494.46,-26.53 867.82,-56.32 867.82,-104 867.82,-280 867.82,-280 867.82,-280 867.82,-358.51 577.25,-365.1 484.15,-365.2"/>
<polygon fill="black" stroke="black" points="484.06,-361.7 474.05,-365.18 484.05,-368.7 484.06,-361.7"/>
<text text-anchor="middle" x="916.32" y="-188.3" font-family="Times,serif" font-size="14.00">mem_ctrl_branch</text>
</g>
<!-- 4&#45;&gt;4 -->
<g id="edge15" class="edge">
<title>4&#45;&gt;4</title>
<path fill="none" stroke="black" d="M406.48,-25.38C416.44,-27.02 425.82,-24.56 425.82,-18 425.82,-13.8 421.97,-11.28 416.59,-10.44"/>
<polygon fill="black" stroke="black" points="416.42,-6.94 406.48,-10.62 416.54,-13.94 416.42,-6.94"/>
<text text-anchor="middle" x="476.82" y="-14.3" font-family="Times,serif" font-size="14.00">!mem_ctrl_branch</text>
</g>
<!-- 2&#45;&gt;4 -->
<g id="edge10" class="edge">
<title>2&#45;&gt;4</title>
<path fill="none" stroke="black" d="M223.18,-173.93C225.79,-151.57 233.32,-112.23 254.82,-87 283.14,-53.77 331.67,-35.01 362.18,-25.95"/>
<polygon fill="black" stroke="black" points="363.48,-29.22 372.16,-23.14 361.58,-22.48 363.48,-29.22"/>
<text text-anchor="middle" x="308.82" y="-101.3" font-family="Times,serif" font-size="14.00">trig_pc_is_valid_pc</text>
</g>
<!-- 2&#45;&gt;2 -->
<g id="edge8" class="edge">
<title>2&#45;&gt;2</title>
<path fill="none" stroke="black" d="M238.48,-199.38C248.44,-201.02 257.82,-198.56 257.82,-192 257.82,-187.8 253.97,-185.28 248.59,-184.44"/>
<polygon fill="black" stroke="black" points="248.42,-180.94 238.48,-184.62 248.54,-187.94 248.42,-180.94"/>
<text text-anchor="middle" x="342.82" y="-188.3" font-family="Times,serif" font-size="14.00">!trig_pc_is_valid_pc &amp;&amp; trigB</text>
</g>
<!-- 3 -->
<g id="node5" class="node">
<title>3</title>
<ellipse fill="none" stroke="black" cx="389.82" cy="-105" rx="18" ry="18"/>
<text text-anchor="middle" x="389.82" y="-101.3" font-family="Times,serif" font-size="14.00">3</text>
</g>
<!-- 2&#45;&gt;3 -->
<g id="edge9" class="edge">
<title>2&#45;&gt;3</title>
<path fill="none" stroke="black" d="M231.14,-176.5C239.21,-165.11 251.93,-149.77 266.82,-141 297.47,-122.94 310.77,-133.31 344.82,-123 350.96,-121.14 357.47,-118.86 363.58,-116.59"/>
<polygon fill="black" stroke="black" points="365.26,-119.69 373.33,-112.84 362.74,-113.16 365.26,-119.69"/>
<text text-anchor="middle" x="354.32" y="-144.8" font-family="Times,serif" font-size="14.00">!trig_pc_is_valid_pc &amp;&amp; !trigB</text>
</g>
<!-- 3&#45;&gt;0 -->
<g id="edge11" class="edge">
<title>3&#45;&gt;0</title>
<path fill="none" stroke="black" d="M406.49,-112.43C418.55,-118.03 434.03,-127.4 441.82,-141 451.38,-157.68 454.52,-281.75 455.45,-337.74"/>
<polygon fill="black" stroke="black" points="451.96,-338.03 455.61,-347.97 458.96,-337.92 451.96,-338.03"/>
<text text-anchor="middle" x="578.32" y="-231.8" font-family="Times,serif" font-size="14.00">!trig_pc_is_valid_pc &amp;&amp; jalr_and_count_zero</text>
</g>
<!-- 3&#45;&gt;4 -->
<g id="edge13" class="edge">
<title>3&#45;&gt;4</title>
<path fill="none" stroke="black" d="M389.82,-86.8C389.82,-75.16 389.82,-59.55 389.82,-46.24"/>
<polygon fill="black" stroke="black" points="393.32,-46.18 389.82,-36.18 386.32,-46.18 393.32,-46.18"/>
<text text-anchor="middle" x="443.82" y="-57.8" font-family="Times,serif" font-size="14.00">trig_pc_is_valid_pc</text>
</g>
<!-- 3&#45;&gt;3 -->
<g id="edge12" class="edge">
<title>3&#45;&gt;3</title>
<path fill="none" stroke="black" d="M406.48,-112.38C416.44,-114.02 425.82,-111.56 425.82,-105 425.82,-100.8 421.97,-98.28 416.59,-97.44"/>
<polygon fill="black" stroke="black" points="416.42,-93.94 406.48,-97.62 416.54,-100.94 416.42,-93.94"/>
<text text-anchor="middle" x="554.82" y="-101.3" font-family="Times,serif" font-size="14.00">!trig_pc_is_valid_pc &amp;&amp; !jalr_and_count_zero</text>
</g>
</g>
</svg>
